<svg width="584" height="242" viewBox="0 0 584 242" fill="none" xmlns="http://www.w3.org/2000/svg">
    <rect width="31.4166" height="177" transform="matrix(-1 0 0 1 301 16.1328)" fill="#FFAE08" />
    <path d="M295.688 25.0703L269.434 16.2822L78.5428 164.193L104.796 172.981L295.688 25.0703Z"
        fill="#FFAE08" />
    <rect width="31.4166" height="177" transform="matrix(-1 0 0 1 222.458 16.1328)" fill="#FFAE08" />
    <rect width="27.6853" height="241.489"
        transform="matrix(-0.948282 -0.317428 -0.790475 0.612495 217.146 25.0703)" fill="#FFAE08" />
    <path
        d="M372.056 92.1656C372.056 78.5656 375.856 68.2323 383.456 61.1656C391.056 53.9656 401.456 50.3656 414.656 50.3656C427.856 50.3656 438.123 54.099 445.456 61.5656C452.79 69.0323 456.456 79.2989 456.456 92.3656V156.566C456.456 164.699 454.723 171.766 451.256 177.766C447.79 183.632 442.856 188.166 436.456 191.366C430.19 194.432 422.856 195.966 414.456 195.966C406.59 195.966 399.456 194.499 393.056 191.566C386.656 188.632 381.523 184.232 377.656 178.366C373.923 172.499 372.056 165.232 372.056 156.566V92.1656ZM401.256 152.966C401.256 156.299 401.723 159.166 402.656 161.566C403.723 163.832 405.256 165.566 407.256 166.766C409.256 167.966 411.656 168.566 414.456 168.566C417.123 168.566 419.39 167.966 421.256 166.766C423.256 165.432 424.79 163.566 425.856 161.166C426.923 158.766 427.456 155.966 427.456 152.766V96.1656C427.456 91.8989 426.99 88.4989 426.056 85.9656C425.256 83.4323 423.856 81.5656 421.856 80.3656C419.99 79.1656 417.456 78.5656 414.256 78.5656C411.323 78.5656 408.856 79.1656 406.856 80.3656C404.99 81.4323 403.59 83.2989 402.656 85.9656C401.723 88.4989 401.256 91.9656 401.256 96.3656V152.966Z"
        fill="black" />
    <path
        d="M427.056 92.1656C427.056 78.5656 430.856 68.2323 438.456 61.1656C446.056 53.9656 456.456 50.3656 469.656 50.3656C482.856 50.3656 493.123 54.099 500.456 61.5656C507.79 69.0323 511.456 79.2989 511.456 92.3656V156.566C511.456 164.699 509.723 171.766 506.256 177.766C502.79 183.632 497.856 188.166 491.456 191.366C485.19 194.432 477.856 195.966 469.456 195.966C461.59 195.966 454.456 194.499 448.056 191.566C441.656 188.632 436.523 184.232 432.656 178.366C428.923 172.499 427.056 165.232 427.056 156.566V92.1656ZM456.256 152.966C456.256 156.299 456.723 159.166 457.656 161.566C458.723 163.832 460.256 165.566 462.256 166.766C464.256 167.966 466.656 168.566 469.456 168.566C472.123 168.566 474.39 167.966 476.256 166.766C478.256 165.432 479.79 163.566 480.856 161.166C481.923 158.766 482.456 155.966 482.456 152.766V96.1656C482.456 91.8989 481.99 88.4989 481.056 85.9656C480.256 83.4323 478.856 81.5656 476.856 80.3656C474.99 79.1656 472.456 78.5656 469.256 78.5656C466.323 78.5656 463.856 79.1656 461.856 80.3656C459.99 81.4323 458.59 83.2989 457.656 85.9656C456.723 88.4989 456.256 91.9656 456.256 96.3656V152.966Z"
        fill="#FFAE08" />
    <path
        d="M354.856 53.5656C364.456 53.5656 372.723 55.2323 379.656 58.5656C386.59 61.8989 391.923 66.899 395.656 73.5656C399.523 80.0989 401.456 88.1656 401.456 97.7656V152.366C401.456 161.166 399.856 168.699 396.656 174.966C393.59 181.099 388.856 185.766 382.456 188.966C376.19 192.166 368.323 193.766 358.856 193.766H317.056V53.5656H354.856ZM357.056 167.566C360.39 167.566 363.056 167.166 365.056 166.366C367.19 165.566 368.723 164.499 369.656 163.166C370.723 161.832 371.39 160.299 371.656 158.566C372.056 156.832 372.256 155.032 372.256 153.166V95.9656C372.256 92.4989 371.723 89.6323 370.656 87.3656C369.59 85.0989 367.99 83.4323 365.856 82.3656C363.723 81.299 360.99 80.7656 357.656 80.7656H346.256V167.566H357.056Z"
        fill="#FFAE08" />
    <path
        d="M288.057 193.633V53.6328H355.057V80.6328H317.257V108.233H343.657L335.457 134.833H317.057L317.257 167.433H354.657V193.633H288.057Z"
        fill="black" />
    <path
        d="M555.071 83.5985C552.522 82.5715 549.841 81.6798 547.028 80.9236C544.348 80.0319 541.538 79.409 538.598 79.0548C535.79 78.5652 532.92 78.3432 529.987 78.3889C527.854 78.4222 525.657 78.6565 523.397 79.0917C521.27 79.5249 519.281 80.2227 517.429 81.185C515.71 82.1453 514.264 83.4346 513.089 85.0532C512.047 86.6696 511.544 88.611 511.579 90.8774C511.619 93.4104 512.52 95.5966 514.282 97.4361C516.177 99.2734 518.605 101.036 521.565 102.723C524.656 104.275 528.081 105.822 531.839 107.364C535.73 108.903 539.69 110.575 543.718 112.379C547.747 114.183 551.646 116.256 555.417 118.597C559.32 120.937 562.764 123.683 565.746 126.837C568.863 129.989 571.321 133.685 573.12 137.924C575.053 142.161 576.063 147.079 576.151 152.678C576.275 160.677 574.981 167.498 572.269 173.141C569.688 178.649 566.025 183.173 561.279 186.714C556.534 190.255 551.107 192.874 545 194.569C539.025 196.262 532.705 197.161 526.04 197.265C520.307 197.354 514.562 196.644 508.804 195.133C503.182 193.754 497.815 191.638 492.703 188.784C487.725 185.927 483.268 182.33 479.333 177.991L493.42 157.769C496.128 160.393 499.165 162.746 502.531 164.827C505.895 166.775 509.453 168.32 513.205 169.462C516.954 170.47 520.695 170.945 524.428 170.887C527.361 170.841 530.089 170.465 532.612 169.759C535.134 169.053 537.385 168.018 539.364 166.653C541.474 165.154 543.047 163.396 544.082 161.379C545.249 159.228 545.809 156.685 545.764 153.752C545.718 150.819 544.812 148.3 543.045 146.194C541.277 143.954 538.913 141.991 535.953 140.303C532.991 138.483 529.63 136.735 525.87 135.06C522.11 133.385 518.282 131.645 514.387 129.838C510.492 128.032 506.66 126.025 502.892 123.817C499.257 121.607 495.949 118.991 492.968 115.971C489.987 112.95 487.599 109.453 485.804 105.481C484.006 101.375 483.066 96.6559 482.983 91.3232C482.873 84.2574 484.18 78.303 486.905 73.4599C489.761 68.4815 493.5 64.556 498.123 61.6836C502.743 58.6779 507.776 56.4658 513.221 55.0474C518.666 53.6291 523.922 52.8804 528.988 52.8014C532.721 52.7432 536.391 52.9527 539.999 53.4298C543.607 53.907 547.219 54.6508 550.835 55.6612C554.451 56.6716 557.873 58.0184 561.099 59.7017L555.071 83.5985Z"
        fill="black" />
</svg>
    